G04*
G04 #@! TF.GenerationSoftware,Altium Limited,Altium Designer,20.0.12 (288)*
G04*
G04 Layer_Color=255*
%FSLAX25Y25*%
%MOIN*%
G70*
G01*
G75*
%ADD12R,0.13386X0.06299*%
%ADD13R,0.03898X0.01595*%
%ADD14R,0.06791X0.08799*%
%ADD26C,0.04724*%
%ADD27C,0.15748*%
%ADD28O,0.09252X0.08858*%
%ADD29C,0.08858*%
%ADD30C,0.11811*%
D12*
X282795Y215500D02*
D03*
X307205D02*
D03*
X282795Y245500D02*
D03*
X307205D02*
D03*
X282795Y297000D02*
D03*
X307205D02*
D03*
X282795Y326500D02*
D03*
X307205D02*
D03*
D13*
X194748Y241295D02*
D03*
Y238697D02*
D03*
Y233500D02*
D03*
Y236098D02*
D03*
X206500Y241295D02*
D03*
Y238697D02*
D03*
Y233500D02*
D03*
Y236098D02*
D03*
X194748Y265098D02*
D03*
Y262500D02*
D03*
Y257303D02*
D03*
Y259902D02*
D03*
X206500Y265098D02*
D03*
Y262500D02*
D03*
Y257303D02*
D03*
Y259902D02*
D03*
X194748Y289500D02*
D03*
Y286901D02*
D03*
Y281705D02*
D03*
Y284303D02*
D03*
X206500Y289500D02*
D03*
Y286901D02*
D03*
Y281705D02*
D03*
Y284303D02*
D03*
D14*
X198655Y237398D02*
D03*
Y261201D02*
D03*
Y285602D02*
D03*
D26*
X343000Y242500D02*
D03*
Y232500D02*
D03*
Y252500D02*
D03*
Y262500D02*
D03*
Y287000D02*
D03*
Y277000D02*
D03*
Y297000D02*
D03*
Y307000D02*
D03*
D27*
X382000Y166000D02*
D03*
Y333000D02*
D03*
X144000D02*
D03*
Y166000D02*
D03*
D28*
X302185Y171000D02*
D03*
D29*
X282500D02*
D03*
D30*
X149705Y281185D02*
D03*
Y261500D02*
D03*
Y241815D02*
D03*
M02*
