G04*
G04 #@! TF.GenerationSoftware,Altium Limited,Altium Designer,20.0.12 (288)*
G04*
G04 Layer_Physical_Order=1*
G04 Layer_Color=255*
%FSLAX25Y25*%
%MOIN*%
G70*
G01*
G75*
%ADD11C,0.01000*%
%ADD12R,0.13386X0.06299*%
%ADD13R,0.03898X0.01595*%
%ADD14R,0.06791X0.08799*%
%ADD25C,0.05000*%
%ADD26C,0.04724*%
%ADD27C,0.15748*%
%ADD28O,0.09252X0.08858*%
%ADD29C,0.08858*%
%ADD30C,0.11811*%
%ADD31C,0.05000*%
%ADD32C,0.02000*%
G36*
X394500Y153500D02*
X131500D01*
Y345500D01*
X394500D01*
Y153500D01*
D02*
G37*
%LPC*%
G36*
X256771Y335996D02*
X256710Y335971D01*
X256645Y335985D01*
X255828Y335834D01*
X255772Y335797D01*
X255706Y335798D01*
X254934Y335490D01*
X254887Y335444D01*
X254821Y335431D01*
X254125Y334979D01*
X254087Y334924D01*
X254025Y334899D01*
X253431Y334319D01*
X253404Y334258D01*
X253348Y334222D01*
X252878Y333537D01*
X252865Y333472D01*
X252817Y333426D01*
X252510Y332712D01*
X252510Y332652D01*
X252475Y332604D01*
X252368Y332149D01*
X252380Y332072D01*
X252351Y332000D01*
X252350Y290532D01*
X252315Y290172D01*
X252028Y289479D01*
X251815Y289266D01*
X251706Y289274D01*
X251452Y289793D01*
X251507Y289876D01*
X251631Y290500D01*
X251507Y291124D01*
X251153Y291653D01*
X250624Y292007D01*
X250000Y292131D01*
X249376Y292007D01*
X248937Y291714D01*
X248916Y291707D01*
X248903Y291704D01*
X248891Y291703D01*
X248887Y291701D01*
X248878Y291699D01*
X248862Y291688D01*
X248855Y291686D01*
X248853Y291684D01*
X248832Y291678D01*
X248797Y291670D01*
X248756Y291663D01*
X248609Y291651D01*
X248522Y291649D01*
X248458Y291621D01*
X208535D01*
X208105Y291536D01*
X207742Y291293D01*
X207741Y291293D01*
X207346Y290897D01*
X204150D01*
X203951Y290897D01*
X203649Y291272D01*
Y293879D01*
X248449D01*
X248509Y293851D01*
X248695Y293844D01*
X248748Y293838D01*
X248797Y293830D01*
X248832Y293822D01*
X248853Y293816D01*
X248855Y293814D01*
X248862Y293812D01*
X248878Y293801D01*
X248887Y293799D01*
X248891Y293797D01*
X248903Y293796D01*
X248916Y293793D01*
X248937Y293786D01*
X249376Y293493D01*
X250000Y293369D01*
X250624Y293493D01*
X251153Y293847D01*
X251507Y294376D01*
X251631Y295000D01*
X251507Y295624D01*
X251153Y296153D01*
X250624Y296507D01*
X250000Y296631D01*
X249376Y296507D01*
X248937Y296214D01*
X248916Y296207D01*
X248903Y296204D01*
X248891Y296203D01*
X248887Y296201D01*
X248878Y296199D01*
X248862Y296188D01*
X248855Y296186D01*
X248853Y296184D01*
X248832Y296178D01*
X248797Y296170D01*
X248756Y296163D01*
X248609Y296151D01*
X248522Y296149D01*
X248458Y296122D01*
X203649D01*
Y296699D01*
X203600Y296818D01*
Y296947D01*
X203448Y297315D01*
X203356Y297406D01*
X203307Y297526D01*
X203026Y297807D01*
X202906Y297856D01*
X202815Y297948D01*
X202448Y298100D01*
X202318D01*
X202199Y298149D01*
X148909D01*
X148848Y298124D01*
X148782Y298137D01*
X147623Y297906D01*
X147568Y297869D01*
X147501D01*
X146409Y297417D01*
X146362Y297370D01*
X146297Y297357D01*
X145314Y296701D01*
X145277Y296645D01*
X145216Y296620D01*
X144380Y295784D01*
X144355Y295723D01*
X144299Y295686D01*
X143643Y294703D01*
X143630Y294638D01*
X143583Y294591D01*
X143131Y293499D01*
Y293432D01*
X143094Y293377D01*
X142863Y292218D01*
X142876Y292152D01*
X142851Y292091D01*
Y291500D01*
Y280409D01*
X142876Y280348D01*
X142863Y280282D01*
X143094Y279123D01*
X143131Y279068D01*
Y279001D01*
X143583Y277909D01*
X143630Y277862D01*
X143643Y277797D01*
X144299Y276814D01*
X144355Y276777D01*
X144380Y276716D01*
X145216Y275880D01*
X145277Y275855D01*
X145314Y275799D01*
X146297Y275143D01*
X146362Y275130D01*
X146409Y275083D01*
X147501Y274631D01*
X147568D01*
X147623Y274594D01*
X148782Y274363D01*
X148848Y274376D01*
X148909Y274351D01*
X202199D01*
X202318Y274400D01*
X202447D01*
X202719Y274513D01*
X203003Y274089D01*
X202207Y273293D01*
X202091Y273341D01*
X201961D01*
X201842Y273391D01*
X148552D01*
X148491Y273365D01*
X148425Y273378D01*
X147266Y273148D01*
X147211Y273111D01*
X147144D01*
X146053Y272658D01*
X146006Y272611D01*
X145940Y272598D01*
X144958Y271942D01*
X144921Y271886D01*
X144859Y271861D01*
X144024Y271025D01*
X143998Y270964D01*
X143943Y270927D01*
X143286Y269944D01*
X143273Y269879D01*
X143226Y269832D01*
X142774Y268740D01*
Y268673D01*
X142737Y268618D01*
X142506Y267459D01*
X142519Y267394D01*
X142494Y267332D01*
Y256241D01*
Y255650D01*
X142519Y255589D01*
X142506Y255524D01*
X142737Y254364D01*
X142774Y254309D01*
Y254243D01*
X143226Y253151D01*
X143273Y253104D01*
X143286Y253038D01*
X143943Y252056D01*
X143998Y252019D01*
X144024Y251957D01*
X144859Y251121D01*
X144921Y251096D01*
X144958Y251041D01*
X145940Y250384D01*
X146006Y250371D01*
X146053Y250324D01*
X147144Y249872D01*
X147211D01*
X147266Y249835D01*
X148425Y249604D01*
X148491Y249617D01*
X148552Y249592D01*
X201842D01*
X201961Y249641D01*
X202091D01*
X202458Y249794D01*
X202550Y249885D01*
X202669Y249934D01*
X202950Y250216D01*
X203000Y250335D01*
X203091Y250426D01*
X203243Y250794D01*
Y250923D01*
X203293Y251042D01*
Y271206D01*
X205465Y273378D01*
X248449D01*
X248509Y273351D01*
X248695Y273344D01*
X248748Y273338D01*
X248797Y273330D01*
X248832Y273322D01*
X248853Y273316D01*
X248855Y273314D01*
X248862Y273312D01*
X248878Y273301D01*
X248887Y273299D01*
X248891Y273297D01*
X248903Y273296D01*
X248916Y273293D01*
X248937Y273286D01*
X249348Y273011D01*
X249376Y272798D01*
Y272702D01*
X249348Y272489D01*
X248937Y272214D01*
X248916Y272207D01*
X248903Y272204D01*
X248891Y272203D01*
X248887Y272201D01*
X248878Y272199D01*
X248862Y272188D01*
X248855Y272186D01*
X248853Y272184D01*
X248832Y272178D01*
X248797Y272170D01*
X248756Y272163D01*
X248609Y272151D01*
X248522Y272149D01*
X248458Y272122D01*
X208013D01*
X207938Y272149D01*
X207305Y272122D01*
X207000D01*
X207000Y272122D01*
X206915Y272105D01*
X206784Y272099D01*
X206747Y272082D01*
X206500Y272131D01*
X205876Y272007D01*
X205346Y271654D01*
X204993Y271124D01*
X204869Y270500D01*
X204993Y269876D01*
X205346Y269346D01*
X205876Y268993D01*
X206500Y268869D01*
X207124Y268993D01*
X207653Y269346D01*
X207987Y269846D01*
X208024Y269849D01*
X208115Y269851D01*
X208150Y269866D01*
X208186Y269856D01*
X208224Y269879D01*
X248449D01*
X248509Y269851D01*
X248695Y269844D01*
X248748Y269838D01*
X248797Y269830D01*
X248832Y269822D01*
X248853Y269816D01*
X248855Y269814D01*
X248862Y269812D01*
X248878Y269801D01*
X248887Y269799D01*
X248891Y269797D01*
X248903Y269796D01*
X248916Y269793D01*
X248937Y269786D01*
X249348Y269511D01*
X249376Y269298D01*
Y269202D01*
X249348Y268989D01*
X248937Y268714D01*
X248916Y268707D01*
X248903Y268704D01*
X248891Y268703D01*
X248887Y268701D01*
X248878Y268699D01*
X248862Y268688D01*
X248855Y268686D01*
X248853Y268684D01*
X248832Y268678D01*
X248797Y268670D01*
X248756Y268663D01*
X248609Y268651D01*
X248522Y268649D01*
X248458Y268621D01*
X209035D01*
X209035Y268622D01*
X208605Y268536D01*
X208242Y268293D01*
X208242Y268293D01*
X207156Y267207D01*
X206913Y266843D01*
X206854Y266549D01*
X206831Y266496D01*
X203951D01*
Y263701D01*
Y261103D01*
Y258504D01*
Y255906D01*
X203951D01*
X203991Y255846D01*
X203851Y255506D01*
Y253000D01*
X204041Y252541D01*
X204403Y252391D01*
X204590Y252039D01*
X204644Y251851D01*
X204493Y251624D01*
X204369Y251000D01*
X204493Y250376D01*
X204847Y249847D01*
X205376Y249493D01*
X205893Y249390D01*
X205913Y249380D01*
X205924Y249373D01*
X205933Y249365D01*
X205938Y249364D01*
X205946Y249359D01*
X205965Y249355D01*
X205971Y249352D01*
X205973Y249352D01*
X205993Y249341D01*
X206024Y249322D01*
X206057Y249298D01*
X206170Y249202D01*
X206233Y249142D01*
X206297Y249117D01*
X209207Y246207D01*
X209571Y245964D01*
X210000Y245879D01*
X210000Y245879D01*
X248449D01*
X248509Y245851D01*
X248695Y245844D01*
X248748Y245838D01*
X248796Y245830D01*
X248832Y245822D01*
X248853Y245816D01*
X248855Y245814D01*
X248862Y245812D01*
X248878Y245801D01*
X248887Y245799D01*
X248891Y245797D01*
X248902Y245796D01*
X248916Y245793D01*
X248937Y245786D01*
X249348Y245511D01*
X249376Y245298D01*
Y245202D01*
X249348Y244989D01*
X248937Y244714D01*
X248916Y244707D01*
X248903Y244704D01*
X248891Y244703D01*
X248887Y244701D01*
X248878Y244699D01*
X248862Y244688D01*
X248855Y244686D01*
X248853Y244684D01*
X248832Y244678D01*
X248797Y244670D01*
X248756Y244663D01*
X248609Y244651D01*
X248522Y244649D01*
X248458Y244621D01*
X208705D01*
X208276Y244536D01*
X207912Y244293D01*
X207912Y244293D01*
X206901Y243283D01*
X206838Y243258D01*
X206707Y243134D01*
X206593Y243036D01*
X206483Y242953D01*
X206378Y242885D01*
X206280Y242829D01*
X206187Y242787D01*
X206101Y242756D01*
X206019Y242735D01*
X205942Y242723D01*
X205835Y242717D01*
X205784Y242692D01*
X203951D01*
Y239898D01*
Y237300D01*
Y232754D01*
X203793Y232665D01*
X203293Y232957D01*
Y247440D01*
X203243Y247559D01*
Y247689D01*
X203091Y248056D01*
X203000Y248148D01*
X202950Y248267D01*
X202669Y248548D01*
X202550Y248598D01*
X202458Y248689D01*
X202091Y248841D01*
X201961D01*
X201842Y248891D01*
X148552D01*
X148491Y248865D01*
X148425Y248878D01*
X147266Y248648D01*
X147211Y248611D01*
X147144D01*
X146053Y248158D01*
X146006Y248111D01*
X145940Y248098D01*
X144958Y247442D01*
X144921Y247386D01*
X144859Y247361D01*
X144024Y246525D01*
X143998Y246464D01*
X143943Y246427D01*
X143286Y245444D01*
X143273Y245379D01*
X143226Y245332D01*
X142774Y244240D01*
Y244173D01*
X142737Y244118D01*
X142506Y242959D01*
X142519Y242894D01*
X142494Y242832D01*
Y231741D01*
Y231150D01*
X142519Y231089D01*
X142506Y231024D01*
X142737Y229864D01*
X142774Y229809D01*
Y229743D01*
X143226Y228651D01*
X143273Y228604D01*
X143286Y228538D01*
X143943Y227556D01*
X143998Y227519D01*
X144024Y227457D01*
X144859Y226622D01*
X144921Y226596D01*
X144958Y226541D01*
X145940Y225884D01*
X146006Y225871D01*
X146053Y225824D01*
X147144Y225372D01*
X147211D01*
X147266Y225335D01*
X148425Y225104D01*
X148491Y225117D01*
X148552Y225092D01*
X199322D01*
X202707Y221707D01*
X202707Y221707D01*
X203071Y221464D01*
X203500Y221378D01*
X248449D01*
X248509Y221351D01*
X248695Y221344D01*
X248748Y221338D01*
X248797Y221330D01*
X248832Y221322D01*
X248853Y221316D01*
X248855Y221314D01*
X248862Y221312D01*
X248878Y221301D01*
X248887Y221299D01*
X248891Y221297D01*
X248903Y221296D01*
X248916Y221293D01*
X248937Y221286D01*
X249376Y220993D01*
X250000Y220869D01*
X250624Y220993D01*
X251153Y221346D01*
X251507Y221876D01*
X251631Y222500D01*
X251507Y223124D01*
X251153Y223654D01*
X250652Y223989D01*
X250624Y224202D01*
Y224298D01*
X250652Y224511D01*
X251153Y224847D01*
X251507Y225376D01*
X251631Y226000D01*
X251507Y226624D01*
X251153Y227153D01*
X250624Y227507D01*
X250000Y227631D01*
X249376Y227507D01*
X248847Y227153D01*
X248513Y226654D01*
X248476Y226651D01*
X248385Y226649D01*
X248350Y226634D01*
X248314Y226644D01*
X248276Y226622D01*
X207051D01*
X206991Y226649D01*
X206805Y226656D01*
X206752Y226662D01*
X206703Y226670D01*
X206668Y226678D01*
X206647Y226684D01*
X206645Y226686D01*
X206638Y226688D01*
X206622Y226699D01*
X206613Y226701D01*
X206609Y226703D01*
X206597Y226704D01*
X206584Y226707D01*
X206563Y226714D01*
X206124Y227007D01*
X205500Y227131D01*
X204876Y227007D01*
X204346Y226654D01*
X203993Y226124D01*
X203869Y225500D01*
X203993Y224876D01*
X204346Y224346D01*
X204683Y224121D01*
X204531Y223622D01*
X203965D01*
X202663Y224923D01*
X202669Y225434D01*
X202950Y225716D01*
X203000Y225835D01*
X203091Y225926D01*
X203243Y226294D01*
Y226423D01*
X203293Y226542D01*
Y228386D01*
X203793Y228686D01*
X204000Y228601D01*
X226750D01*
X250468Y228601D01*
X250828Y228565D01*
X251521Y228278D01*
X252028Y227771D01*
X252315Y227078D01*
X252351Y226716D01*
X252351Y219000D01*
X252351Y185500D01*
X252350Y184515D01*
X252376Y184454D01*
X252363Y184388D01*
X252747Y182456D01*
X252784Y182401D01*
Y182335D01*
X253538Y180515D01*
X253585Y180468D01*
X253598Y180402D01*
X254692Y178765D01*
X254748Y178728D01*
X254773Y178666D01*
X256166Y177273D01*
X256227Y177248D01*
X256264Y177192D01*
X257902Y176098D01*
X257967Y176085D01*
X258015Y176038D01*
X259835Y175284D01*
X259901D01*
X259956Y175247D01*
X261888Y174863D01*
X261953Y174876D01*
X262015Y174850D01*
X263000Y174851D01*
X270484Y174850D01*
X270861Y174832D01*
X271617Y174682D01*
X272314Y174393D01*
X272941Y173974D01*
X273474Y173441D01*
X273893Y172814D01*
X274182Y172117D01*
X274332Y171361D01*
X274350Y170985D01*
X274351Y170985D01*
Y169761D01*
X274376Y169700D01*
X274363Y169635D01*
X274651Y168186D01*
X274688Y168130D01*
Y168064D01*
X275254Y166699D01*
X275301Y166652D01*
X275314Y166587D01*
X276134Y165358D01*
X276190Y165321D01*
X276215Y165260D01*
X277260Y164215D01*
X277321Y164190D01*
X277358Y164134D01*
X278587Y163314D01*
X278652Y163301D01*
X278699Y163254D01*
X280064Y162688D01*
X280130D01*
X280186Y162651D01*
X281635Y162363D01*
X281700Y162376D01*
X281761Y162351D01*
X283288D01*
X283349Y162376D01*
X283415Y162363D01*
X284960Y162671D01*
X285016Y162707D01*
X285082D01*
X286538Y163311D01*
X286585Y163357D01*
X286650Y163371D01*
X287961Y164246D01*
X287998Y164301D01*
X288059Y164327D01*
X289173Y165441D01*
X289199Y165503D01*
X289254Y165540D01*
X290129Y166850D01*
X290142Y166915D01*
X290190Y166962D01*
X290793Y168418D01*
Y168484D01*
X290829Y168540D01*
X291137Y170085D01*
X291124Y170151D01*
X291149Y170212D01*
Y171000D01*
Y210855D01*
X291146Y210863D01*
X291149Y210871D01*
X291137Y211366D01*
X291040Y211586D01*
X290947Y211810D01*
X290940Y211813D01*
X290936Y211820D01*
X290711Y211907D01*
X290488Y212000D01*
X290088Y212000D01*
Y219000D01*
X290488Y219000D01*
X290711Y219093D01*
X290936Y219180D01*
X290940Y219187D01*
X290947Y219190D01*
X291040Y219413D01*
X291137Y219634D01*
X291149Y220129D01*
X291146Y220137D01*
X291149Y220145D01*
Y221000D01*
Y240855D01*
X291146Y240863D01*
X291149Y240871D01*
X291137Y241366D01*
X291040Y241586D01*
X290947Y241810D01*
X290940Y241813D01*
X290936Y241820D01*
X290711Y241907D01*
X290488Y242000D01*
X290088Y242000D01*
Y249037D01*
X290229Y249095D01*
X290457Y249188D01*
X290957Y249683D01*
X290958Y249685D01*
X290959Y249686D01*
X291054Y249913D01*
X291149Y250142D01*
X291149Y250143D01*
X291149Y250145D01*
Y259990D01*
X291649Y260141D01*
X291846Y259846D01*
X292376Y259493D01*
X293000Y259369D01*
X293624Y259493D01*
X294153Y259846D01*
X294507Y260376D01*
X294631Y261000D01*
X294507Y261624D01*
X294214Y262063D01*
X294207Y262084D01*
X294204Y262098D01*
X294203Y262109D01*
X294201Y262113D01*
X294199Y262122D01*
X294188Y262138D01*
X294186Y262145D01*
X294184Y262147D01*
X294178Y262168D01*
X294170Y262204D01*
X294163Y262244D01*
X294151Y262391D01*
X294149Y262478D01*
X294122Y262542D01*
Y276926D01*
X294149Y276989D01*
X294151Y277080D01*
X294156Y277140D01*
X294162Y277184D01*
X294164Y277192D01*
X294543Y277445D01*
X294897Y277974D01*
X295021Y278598D01*
X294897Y279223D01*
X294543Y279752D01*
X294014Y280106D01*
X293389Y280230D01*
X292765Y280106D01*
X292699Y280062D01*
X292571Y280036D01*
X292207Y279793D01*
X291964Y279429D01*
X291940Y279309D01*
X291882Y279223D01*
X291758Y278598D01*
X291833Y278222D01*
X291818Y278181D01*
X291851Y277509D01*
X291879Y277452D01*
Y277356D01*
X291878Y277354D01*
X291879Y277353D01*
Y262551D01*
X291851Y262491D01*
X291844Y262305D01*
X291843Y262297D01*
X291757Y262189D01*
X291649Y262105D01*
X291350Y262183D01*
X291283Y262223D01*
X291149Y262388D01*
Y292355D01*
X291146Y292363D01*
X291149Y292371D01*
X291137Y292866D01*
X291040Y293087D01*
X290947Y293310D01*
X290940Y293313D01*
X290936Y293320D01*
X290711Y293408D01*
X290488Y293500D01*
X290088Y293500D01*
Y300537D01*
X290228Y300595D01*
X290457Y300688D01*
X290957Y301183D01*
X290958Y301185D01*
X290959Y301185D01*
X291054Y301414D01*
X291149Y301642D01*
X291149Y301643D01*
X291149Y301645D01*
Y304873D01*
X300000D01*
X300809Y304980D01*
X301563Y305292D01*
X302211Y305789D01*
X302708Y306437D01*
X303020Y307191D01*
X303127Y308000D01*
X303020Y308809D01*
X302708Y309563D01*
X302211Y310211D01*
X301563Y310708D01*
X300809Y311020D01*
X300000Y311127D01*
X291149D01*
X291149Y321855D01*
X291146Y321863D01*
X291149Y321871D01*
X291137Y322366D01*
X291040Y322587D01*
X290947Y322810D01*
X290940Y322813D01*
X290936Y322820D01*
X290711Y322907D01*
X290488Y323000D01*
X290088Y323000D01*
Y330009D01*
X290293Y330094D01*
X290521Y330185D01*
X291006Y330658D01*
X291012Y330672D01*
X291026Y330678D01*
X291109Y330898D01*
X291202Y331115D01*
X291196Y331129D01*
X291202Y331143D01*
X291195Y331362D01*
X291168Y331422D01*
X291179Y331488D01*
X290976Y332363D01*
X290937Y332417D01*
X290935Y332484D01*
X290565Y333303D01*
X290517Y333349D01*
X290502Y333414D01*
X289980Y334145D01*
X289923Y334180D01*
X289896Y334241D01*
X289241Y334856D01*
X289179Y334879D01*
X289140Y334934D01*
X288377Y335409D01*
X288312Y335420D01*
X288263Y335466D01*
X287435Y335779D01*
X287370Y335777D01*
X287316Y335811D01*
X286865Y335889D01*
X286863Y335889D01*
X286861Y335890D01*
X286857Y335891D01*
X286802Y335878D01*
X286750Y335899D01*
X258068Y335899D01*
X257729Y335971D01*
X257663Y335959D01*
X257602Y335985D01*
X256771Y335996D01*
D02*
G37*
G36*
X314898Y330650D02*
X307705D01*
Y327000D01*
X314898D01*
Y330650D01*
D02*
G37*
G36*
X306705D02*
X299512D01*
Y327000D01*
X306705D01*
Y330650D01*
D02*
G37*
G36*
X382000Y341515D02*
X380339Y341351D01*
X378741Y340867D01*
X377269Y340080D01*
X375979Y339021D01*
X374920Y337731D01*
X374133Y336259D01*
X373649Y334661D01*
X373485Y333000D01*
X373649Y331339D01*
X374133Y329741D01*
X374920Y328269D01*
X375979Y326979D01*
X377269Y325920D01*
X378741Y325133D01*
X380339Y324649D01*
X382000Y324485D01*
X383661Y324649D01*
X385259Y325133D01*
X386731Y325920D01*
X388021Y326979D01*
X389080Y328269D01*
X389867Y329741D01*
X390351Y331339D01*
X390515Y333000D01*
X390351Y334661D01*
X389867Y336259D01*
X389080Y337731D01*
X388021Y339021D01*
X386731Y340080D01*
X385259Y340867D01*
X383661Y341351D01*
X382000Y341515D01*
D02*
G37*
G36*
X144000D02*
X142339Y341351D01*
X140742Y340867D01*
X139269Y340080D01*
X137979Y339021D01*
X136920Y337731D01*
X136133Y336259D01*
X135649Y334661D01*
X135485Y333000D01*
X135649Y331339D01*
X136133Y329741D01*
X136920Y328269D01*
X137979Y326979D01*
X139269Y325920D01*
X140742Y325133D01*
X142339Y324649D01*
X144000Y324485D01*
X145661Y324649D01*
X147258Y325133D01*
X148731Y325920D01*
X150021Y326979D01*
X151080Y328269D01*
X151867Y329741D01*
X152351Y331339D01*
X152515Y333000D01*
X152351Y334661D01*
X151867Y336259D01*
X151080Y337731D01*
X150021Y339021D01*
X148731Y340080D01*
X147258Y340867D01*
X145661Y341351D01*
X144000Y341515D01*
D02*
G37*
G36*
X314898Y326000D02*
X307705D01*
Y322350D01*
X314898D01*
Y326000D01*
D02*
G37*
G36*
X306705D02*
X299512D01*
Y322350D01*
X306705D01*
Y326000D01*
D02*
G37*
G36*
X343000Y309988D02*
X342227Y309886D01*
X341506Y309588D01*
X340887Y309113D01*
X340412Y308494D01*
X340114Y307773D01*
X340012Y307000D01*
X340114Y306227D01*
X340412Y305506D01*
X340887Y304887D01*
X341506Y304413D01*
X342227Y304114D01*
X343000Y304012D01*
X343773Y304114D01*
X344494Y304413D01*
X345113Y304887D01*
X345587Y305506D01*
X345886Y306227D01*
X345988Y307000D01*
X345886Y307773D01*
X345587Y308494D01*
X345113Y309113D01*
X344494Y309588D01*
X343773Y309886D01*
X343000Y309988D01*
D02*
G37*
G36*
X314898Y301150D02*
X307705D01*
Y297500D01*
X314898D01*
Y301150D01*
D02*
G37*
G36*
X306705D02*
X299512D01*
Y297500D01*
X306705D01*
Y301150D01*
D02*
G37*
G36*
X343000Y299988D02*
X342227Y299886D01*
X341506Y299587D01*
X340887Y299113D01*
X340412Y298494D01*
X340114Y297773D01*
X340012Y297000D01*
X340114Y296227D01*
X340412Y295506D01*
X340887Y294887D01*
X341506Y294412D01*
X342227Y294114D01*
X343000Y294012D01*
X343773Y294114D01*
X344494Y294412D01*
X345113Y294887D01*
X345587Y295506D01*
X345886Y296227D01*
X345988Y297000D01*
X345886Y297773D01*
X345587Y298494D01*
X345113Y299113D01*
X344494Y299587D01*
X343773Y299886D01*
X343000Y299988D01*
D02*
G37*
G36*
X314898Y296500D02*
X307705D01*
Y292850D01*
X314898D01*
Y296500D01*
D02*
G37*
G36*
X306705D02*
X299512D01*
Y292850D01*
X306705D01*
Y296500D01*
D02*
G37*
G36*
X343000Y289988D02*
X342227Y289886D01*
X341506Y289587D01*
X340887Y289113D01*
X340412Y288494D01*
X340114Y287773D01*
X340012Y287000D01*
X340114Y286227D01*
X340412Y285506D01*
X340887Y284887D01*
X341506Y284413D01*
X342227Y284114D01*
X343000Y284012D01*
X343773Y284114D01*
X344494Y284413D01*
X345113Y284887D01*
X345587Y285506D01*
X345886Y286227D01*
X345988Y287000D01*
X345886Y287773D01*
X345587Y288494D01*
X345113Y289113D01*
X344494Y289587D01*
X343773Y289886D01*
X343000Y289988D01*
D02*
G37*
G36*
Y279988D02*
X342227Y279886D01*
X341506Y279588D01*
X340887Y279113D01*
X340412Y278494D01*
X340114Y277773D01*
X340012Y277000D01*
X340114Y276227D01*
X340412Y275506D01*
X340887Y274887D01*
X341506Y274412D01*
X342227Y274114D01*
X343000Y274012D01*
X343773Y274114D01*
X344494Y274412D01*
X345113Y274887D01*
X345587Y275506D01*
X345886Y276227D01*
X345988Y277000D01*
X345886Y277773D01*
X345587Y278494D01*
X345113Y279113D01*
X344494Y279588D01*
X343773Y279886D01*
X343000Y279988D01*
D02*
G37*
G36*
Y265488D02*
X342227Y265386D01*
X341506Y265088D01*
X340887Y264613D01*
X340412Y263994D01*
X340114Y263273D01*
X340012Y262500D01*
X340114Y261727D01*
X340412Y261006D01*
X340887Y260387D01*
X341506Y259912D01*
X342227Y259614D01*
X343000Y259512D01*
X343773Y259614D01*
X344494Y259912D01*
X345113Y260387D01*
X345587Y261006D01*
X345886Y261727D01*
X345988Y262500D01*
X345886Y263273D01*
X345587Y263994D01*
X345113Y264613D01*
X344494Y265088D01*
X343773Y265386D01*
X343000Y265488D01*
D02*
G37*
G36*
Y255488D02*
X342227Y255386D01*
X341506Y255087D01*
X340887Y254613D01*
X340412Y253994D01*
X340114Y253273D01*
X340012Y252500D01*
X340114Y251727D01*
X340412Y251006D01*
X340887Y250387D01*
X341506Y249913D01*
X342227Y249614D01*
X343000Y249512D01*
X343773Y249614D01*
X344494Y249913D01*
X345113Y250387D01*
X345587Y251006D01*
X345886Y251727D01*
X345988Y252500D01*
X345886Y253273D01*
X345587Y253994D01*
X345113Y254613D01*
X344494Y255087D01*
X343773Y255386D01*
X343000Y255488D01*
D02*
G37*
G36*
X314898Y249650D02*
X307705D01*
Y246000D01*
X314898D01*
Y249650D01*
D02*
G37*
G36*
X306705D02*
X299512D01*
Y246000D01*
X306705D01*
Y249650D01*
D02*
G37*
G36*
X314898Y245000D02*
X307705D01*
Y241350D01*
X314898D01*
Y245000D01*
D02*
G37*
G36*
X306705D02*
X299512D01*
Y241350D01*
X306705D01*
Y245000D01*
D02*
G37*
G36*
X343000Y245488D02*
X342227Y245386D01*
X341506Y245088D01*
X340887Y244613D01*
X340412Y243994D01*
X340114Y243273D01*
X340012Y242500D01*
X340114Y241727D01*
X340412Y241006D01*
X340887Y240387D01*
X341506Y239913D01*
X342227Y239614D01*
X343000Y239512D01*
X343773Y239614D01*
X344494Y239913D01*
X345113Y240387D01*
X345587Y241006D01*
X345886Y241727D01*
X345988Y242500D01*
X345886Y243273D01*
X345587Y243994D01*
X345113Y244613D01*
X344494Y245088D01*
X343773Y245386D01*
X343000Y245488D01*
D02*
G37*
G36*
Y235488D02*
X342227Y235386D01*
X341506Y235087D01*
X340887Y234613D01*
X340412Y233994D01*
X340114Y233273D01*
X340012Y232500D01*
X340114Y231727D01*
X340412Y231006D01*
X340887Y230387D01*
X341506Y229912D01*
X342227Y229614D01*
X343000Y229512D01*
X343773Y229614D01*
X344494Y229912D01*
X345113Y230387D01*
X345587Y231006D01*
X345886Y231727D01*
X345988Y232500D01*
X345886Y233273D01*
X345587Y233994D01*
X345113Y234613D01*
X344494Y235087D01*
X343773Y235386D01*
X343000Y235488D01*
D02*
G37*
G36*
X314898Y219650D02*
X307705D01*
Y216000D01*
X314898D01*
Y219650D01*
D02*
G37*
G36*
X306705D02*
X299512D01*
Y216000D01*
X306705D01*
Y219650D01*
D02*
G37*
G36*
X314898Y215000D02*
X307705D01*
Y211350D01*
X314898D01*
Y215000D01*
D02*
G37*
G36*
X306705D02*
X299512D01*
Y211350D01*
X306705D01*
Y215000D01*
D02*
G37*
G36*
X302685Y176436D02*
Y171500D01*
X307792D01*
X307671Y172417D01*
X307124Y173738D01*
X306254Y174872D01*
X305120Y175742D01*
X303799Y176289D01*
X302685Y176436D01*
D02*
G37*
G36*
X301685D02*
X300571Y176289D01*
X299250Y175742D01*
X298116Y174872D01*
X297246Y173738D01*
X296699Y172417D01*
X296578Y171500D01*
X301685D01*
Y176436D01*
D02*
G37*
G36*
Y170500D02*
X296578D01*
X296699Y169583D01*
X297246Y168262D01*
X298116Y167128D01*
X299250Y166258D01*
X300571Y165711D01*
X301685Y165564D01*
Y170500D01*
D02*
G37*
G36*
X307792D02*
X302685D01*
Y165564D01*
X303799Y165711D01*
X305120Y166258D01*
X306254Y167128D01*
X307124Y168262D01*
X307671Y169583D01*
X307792Y170500D01*
D02*
G37*
G36*
X382000Y174515D02*
X380339Y174351D01*
X378741Y173867D01*
X377269Y173080D01*
X375979Y172021D01*
X374920Y170731D01*
X374133Y169258D01*
X373649Y167661D01*
X373485Y166000D01*
X373649Y164339D01*
X374133Y162741D01*
X374920Y161269D01*
X375979Y159979D01*
X377269Y158920D01*
X378741Y158133D01*
X380339Y157649D01*
X382000Y157485D01*
X383661Y157649D01*
X385259Y158133D01*
X386731Y158920D01*
X388021Y159979D01*
X389080Y161269D01*
X389867Y162741D01*
X390351Y164339D01*
X390515Y166000D01*
X390351Y167661D01*
X389867Y169258D01*
X389080Y170731D01*
X388021Y172021D01*
X386731Y173080D01*
X385259Y173867D01*
X383661Y174351D01*
X382000Y174515D01*
D02*
G37*
G36*
X144000D02*
X142339Y174351D01*
X140742Y173867D01*
X139269Y173080D01*
X137979Y172021D01*
X136920Y170731D01*
X136133Y169258D01*
X135649Y167661D01*
X135485Y166000D01*
X135649Y164339D01*
X136133Y162741D01*
X136920Y161269D01*
X137979Y159979D01*
X139269Y158920D01*
X140742Y158133D01*
X142339Y157649D01*
X144000Y157485D01*
X145661Y157649D01*
X147258Y158133D01*
X148731Y158920D01*
X150021Y159979D01*
X151080Y161269D01*
X151867Y162741D01*
X152351Y164339D01*
X152515Y166000D01*
X152351Y167661D01*
X151867Y169258D01*
X151080Y170731D01*
X150021Y172021D01*
X148731Y173080D01*
X147258Y173867D01*
X145661Y174351D01*
X144000Y174515D01*
D02*
G37*
%LPD*%
G36*
X249286Y294300D02*
X249243Y294338D01*
X249193Y294372D01*
X249136Y294402D01*
X249072Y294428D01*
X249000Y294450D01*
X248921Y294468D01*
X248835Y294482D01*
X248742Y294492D01*
X248534Y294500D01*
Y295500D01*
X248642Y295502D01*
X248835Y295518D01*
X248921Y295532D01*
X249000Y295550D01*
X249072Y295572D01*
X249136Y295598D01*
X249193Y295628D01*
X249243Y295662D01*
X249286Y295700D01*
Y294300D01*
D02*
G37*
G36*
Y289800D02*
X249243Y289838D01*
X249193Y289872D01*
X249136Y289902D01*
X249072Y289928D01*
X249000Y289950D01*
X248921Y289968D01*
X248835Y289982D01*
X248742Y289992D01*
X248534Y290000D01*
Y291000D01*
X248642Y291002D01*
X248835Y291018D01*
X248921Y291032D01*
X249000Y291050D01*
X249072Y291072D01*
X249136Y291098D01*
X249193Y291128D01*
X249243Y291162D01*
X249286Y291200D01*
Y289800D01*
D02*
G37*
G36*
X248509Y289351D02*
X248695Y289344D01*
X248703Y289343D01*
X248811Y289257D01*
X248895Y289149D01*
X248817Y288849D01*
X248777Y288783D01*
X248611Y288649D01*
X209449D01*
X209106Y288878D01*
X209103Y289021D01*
X209453Y289378D01*
X248449D01*
X248509Y289351D01*
D02*
G37*
G36*
X293756Y277668D02*
X293707Y277643D01*
X293664Y277609D01*
X293625Y277566D01*
X293592Y277514D01*
X293564Y277452D01*
X293541Y277381D01*
X293523Y277301D01*
X293510Y277211D01*
X293503Y277113D01*
X293500Y277005D01*
X292500Y277541D01*
X292466Y278213D01*
X293756Y277668D01*
D02*
G37*
G36*
X202567Y297348D02*
X202848Y297066D01*
X203000Y296699D01*
Y296500D01*
Y276000D01*
Y275801D01*
X202848Y275433D01*
X202567Y275152D01*
X202199Y275000D01*
X148909D01*
X147750Y275231D01*
X146658Y275683D01*
X145675Y276340D01*
X144840Y277175D01*
X144183Y278158D01*
X143731Y279250D01*
X143500Y280409D01*
Y281000D01*
Y291500D01*
Y292091D01*
X143731Y293250D01*
X144183Y294342D01*
X144840Y295325D01*
X145675Y296161D01*
X146658Y296817D01*
X147750Y297269D01*
X148909Y297500D01*
X202199D01*
X202567Y297348D01*
D02*
G37*
G36*
X249286Y273800D02*
X249243Y273838D01*
X249193Y273872D01*
X249136Y273902D01*
X249072Y273928D01*
X249000Y273950D01*
X248921Y273968D01*
X248835Y273982D01*
X248742Y273992D01*
X248534Y274000D01*
Y275000D01*
X248642Y275002D01*
X248835Y275018D01*
X248921Y275032D01*
X249000Y275050D01*
X249072Y275072D01*
X249136Y275098D01*
X249193Y275128D01*
X249243Y275162D01*
X249286Y275200D01*
Y273800D01*
D02*
G37*
G36*
Y270300D02*
X249243Y270338D01*
X249193Y270372D01*
X249136Y270402D01*
X249072Y270428D01*
X249000Y270450D01*
X248921Y270468D01*
X248835Y270482D01*
X248742Y270492D01*
X248534Y270500D01*
Y271500D01*
X248642Y271502D01*
X248835Y271518D01*
X248921Y271532D01*
X249000Y271550D01*
X249072Y271572D01*
X249136Y271598D01*
X249193Y271628D01*
X249243Y271662D01*
X249286Y271700D01*
Y270300D01*
D02*
G37*
G36*
X208100Y270500D02*
X207992Y270497D01*
X207893Y270490D01*
X207805Y270478D01*
X207727Y270460D01*
X207658Y270438D01*
X207600Y270410D01*
X207552Y270378D01*
X207514Y270340D01*
X207486Y270298D01*
X207469Y270251D01*
X206811Y271450D01*
X207966Y271500D01*
X208100Y270500D01*
D02*
G37*
G36*
X249286Y266800D02*
X249243Y266838D01*
X249193Y266872D01*
X249136Y266902D01*
X249072Y266928D01*
X249000Y266950D01*
X248921Y266968D01*
X248835Y266982D01*
X248742Y266992D01*
X248534Y267000D01*
Y268000D01*
X248642Y268002D01*
X248835Y268018D01*
X248921Y268032D01*
X249000Y268050D01*
X249072Y268072D01*
X249136Y268098D01*
X249193Y268128D01*
X249243Y268162D01*
X249286Y268200D01*
Y266800D01*
D02*
G37*
G36*
X208437Y265884D02*
X207418Y265872D01*
X207424Y265877D01*
X207429Y265894D01*
X207434Y265921D01*
X207438Y265959D01*
X207446Y266138D01*
X207449Y266414D01*
X208449D01*
X208437Y265884D01*
D02*
G37*
G36*
X204500Y277351D02*
X250468Y277350D01*
X250828Y277315D01*
X251521Y277028D01*
X252028Y276521D01*
X252315Y275828D01*
X252351Y275468D01*
Y265532D01*
X252325Y265269D01*
X252112Y264757D01*
X251743Y264388D01*
X251231Y264175D01*
X250968Y264149D01*
X209449D01*
X209049Y264417D01*
Y265287D01*
X209070Y265396D01*
Y265833D01*
X209086Y265869D01*
X209088Y265968D01*
X209499Y266378D01*
X248449D01*
X248509Y266351D01*
X248695Y266344D01*
X248748Y266338D01*
X248797Y266330D01*
X248832Y266322D01*
X248853Y266316D01*
X248855Y266314D01*
X248862Y266312D01*
X248878Y266301D01*
X248887Y266299D01*
X248891Y266297D01*
X248903Y266296D01*
X248916Y266293D01*
X248937Y266286D01*
X249376Y265993D01*
X250000Y265869D01*
X250624Y265993D01*
X251153Y266347D01*
X251507Y266876D01*
X251631Y267500D01*
X251507Y268124D01*
X251153Y268653D01*
X250652Y268989D01*
X250624Y269202D01*
Y269298D01*
X250652Y269511D01*
X251153Y269847D01*
X251507Y270376D01*
X251631Y271000D01*
X251507Y271624D01*
X251153Y272153D01*
X250652Y272489D01*
X250624Y272702D01*
Y272798D01*
X250652Y273011D01*
X251153Y273346D01*
X251507Y273876D01*
X251631Y274500D01*
X251507Y275124D01*
X251153Y275654D01*
X250624Y276007D01*
X250000Y276131D01*
X249376Y276007D01*
X248937Y275714D01*
X248916Y275707D01*
X248903Y275704D01*
X248891Y275703D01*
X248887Y275701D01*
X248878Y275699D01*
X248862Y275688D01*
X248855Y275686D01*
X248853Y275684D01*
X248832Y275678D01*
X248797Y275670D01*
X248756Y275663D01*
X248609Y275651D01*
X248522Y275649D01*
X248458Y275622D01*
X205000D01*
X205000Y275622D01*
X204571Y275536D01*
X204207Y275293D01*
X203984Y275172D01*
X203590Y275528D01*
X203600Y275553D01*
Y275682D01*
X203649Y275801D01*
Y277279D01*
X204150Y277496D01*
X204500Y277351D01*
D02*
G37*
G36*
X293502Y262358D02*
X293518Y262165D01*
X293532Y262079D01*
X293550Y262000D01*
X293572Y261929D01*
X293598Y261864D01*
X293628Y261807D01*
X293662Y261757D01*
X293700Y261714D01*
X292300D01*
X292338Y261757D01*
X292372Y261807D01*
X292402Y261864D01*
X292428Y261929D01*
X292450Y262000D01*
X292468Y262079D01*
X292482Y262165D01*
X292492Y262258D01*
X292500Y262466D01*
X293500D01*
X293502Y262358D01*
D02*
G37*
G36*
X202210Y272589D02*
X202491Y272308D01*
X202643Y271940D01*
Y271741D01*
X202643Y271741D01*
X202643D01*
Y251042D01*
X202491Y250675D01*
X202210Y250394D01*
X201842Y250241D01*
X148552D01*
X147393Y250472D01*
X146301Y250924D01*
X145318Y251581D01*
X144483Y252416D01*
X143826Y253399D01*
X143374Y254491D01*
X143143Y255650D01*
Y256241D01*
X143143Y256241D01*
X143143Y256241D01*
Y267332D01*
X143374Y268491D01*
X143826Y269583D01*
X144483Y270566D01*
X145318Y271402D01*
X146301Y272058D01*
X147393Y272511D01*
X148552Y272741D01*
X201842D01*
X202210Y272589D01*
D02*
G37*
G36*
X207003Y250933D02*
X207015Y250873D01*
X207034Y250812D01*
X207061Y250748D01*
X207096Y250682D01*
X207139Y250613D01*
X207190Y250543D01*
X207249Y250470D01*
X207390Y250317D01*
X206683Y249610D01*
X206606Y249685D01*
X206457Y249810D01*
X206387Y249861D01*
X206318Y249904D01*
X206252Y249939D01*
X206188Y249966D01*
X206126Y249985D01*
X206067Y249997D01*
X206010Y250000D01*
X207000Y250990D01*
X207003Y250933D01*
D02*
G37*
G36*
X249286Y246300D02*
X249243Y246338D01*
X249193Y246372D01*
X249136Y246402D01*
X249072Y246428D01*
X249000Y246450D01*
X248921Y246468D01*
X248835Y246482D01*
X248742Y246492D01*
X248534Y246500D01*
X248534Y247500D01*
X248642Y247502D01*
X248835Y247518D01*
X248921Y247532D01*
X249000Y247550D01*
X249072Y247572D01*
X249136Y247598D01*
X249193Y247628D01*
X249243Y247662D01*
X249286Y247700D01*
X249286Y246300D01*
D02*
G37*
G36*
X249286Y242800D02*
X249243Y242838D01*
X249193Y242872D01*
X249136Y242902D01*
X249072Y242928D01*
X249000Y242950D01*
X248921Y242968D01*
X248835Y242982D01*
X248742Y242992D01*
X248534Y243000D01*
Y244000D01*
X248642Y244002D01*
X248835Y244018D01*
X248921Y244032D01*
X249000Y244050D01*
X249072Y244072D01*
X249136Y244098D01*
X249193Y244128D01*
X249243Y244162D01*
X249286Y244200D01*
Y242800D01*
D02*
G37*
G36*
X208649Y242733D02*
X208605Y242675D01*
X208565Y242614D01*
X208531Y242548D01*
X208503Y242479D01*
X208479Y242407D01*
X208460Y242331D01*
X208447Y242251D01*
X208439Y242168D01*
X208437Y242080D01*
X205871Y242069D01*
X206011Y242076D01*
X206151Y242098D01*
X206292Y242135D01*
X206433Y242185D01*
X206574Y242250D01*
X206715Y242329D01*
X206857Y242422D01*
X207000Y242530D01*
X207142Y242652D01*
X207285Y242788D01*
X208699D01*
X208649Y242733D01*
D02*
G37*
G36*
X250468Y252350D02*
X250828Y252315D01*
X251521Y252028D01*
X252028Y251521D01*
X252315Y250828D01*
X252351Y250468D01*
X252350Y242532D01*
X252315Y242172D01*
X252028Y241479D01*
X251521Y240972D01*
X250828Y240685D01*
X250468Y240649D01*
X209449D01*
X209049Y240917D01*
Y241978D01*
X209086Y242061D01*
X209088Y242127D01*
X209092Y242168D01*
X209097Y242202D01*
X209104Y242230D01*
X209112Y242253D01*
X209120Y242272D01*
X209128Y242288D01*
X209137Y242302D01*
X209147Y242315D01*
X209178Y242348D01*
X209189Y242378D01*
X248449D01*
X248509Y242351D01*
X248695Y242344D01*
X248748Y242338D01*
X248797Y242330D01*
X248832Y242322D01*
X248853Y242316D01*
X248855Y242314D01*
X248862Y242312D01*
X248878Y242301D01*
X248887Y242299D01*
X248891Y242297D01*
X248903Y242296D01*
X248916Y242293D01*
X248937Y242286D01*
X249376Y241993D01*
X250000Y241869D01*
X250624Y241993D01*
X251153Y242347D01*
X251507Y242876D01*
X251631Y243500D01*
X251507Y244124D01*
X251153Y244654D01*
X250652Y244989D01*
X250624Y245202D01*
Y245298D01*
X250652Y245511D01*
X251153Y245847D01*
X251507Y246376D01*
X251631Y247000D01*
X251507Y247624D01*
X251153Y248153D01*
X250624Y248507D01*
X250000Y248631D01*
X249376Y248507D01*
X248937Y248214D01*
X248917Y248207D01*
X248903Y248204D01*
X248891Y248203D01*
X248887Y248201D01*
X248878Y248199D01*
X248862Y248188D01*
X248855Y248186D01*
X248853Y248184D01*
X248832Y248178D01*
X248797Y248170D01*
X248756Y248163D01*
X248609Y248151D01*
X248522Y248149D01*
X248458Y248122D01*
X210465D01*
X207890Y250697D01*
X207867Y250758D01*
X207740Y250894D01*
X207707Y250936D01*
X207678Y250976D01*
X207659Y251007D01*
X207648Y251027D01*
X207648Y251029D01*
X207645Y251035D01*
X207641Y251054D01*
X207636Y251062D01*
X207635Y251067D01*
X207627Y251076D01*
X207620Y251087D01*
X207610Y251107D01*
X207507Y251624D01*
X207356Y251851D01*
X207623Y252351D01*
X250468Y252350D01*
D02*
G37*
G36*
X202210Y248089D02*
X202491Y247808D01*
X202643Y247440D01*
Y247241D01*
X202643Y247241D01*
X202643D01*
Y226542D01*
X202491Y226175D01*
X202210Y225893D01*
X201842Y225741D01*
X148552D01*
X147393Y225972D01*
X146301Y226424D01*
X145318Y227081D01*
X144483Y227917D01*
X143826Y228899D01*
X143374Y229991D01*
X143143Y231150D01*
Y231741D01*
X143143Y231741D01*
X143143Y231741D01*
Y242832D01*
X143374Y243991D01*
X143826Y245083D01*
X144483Y246066D01*
X145318Y246902D01*
X146301Y247558D01*
X147393Y248011D01*
X148552Y248241D01*
X201842D01*
X202210Y248089D01*
D02*
G37*
G36*
X249689Y225050D02*
X248534Y225000D01*
X248400Y226000D01*
X248508Y226003D01*
X248607Y226010D01*
X248695Y226022D01*
X248773Y226040D01*
X248842Y226062D01*
X248900Y226090D01*
X248948Y226122D01*
X248986Y226160D01*
X249014Y226202D01*
X249031Y226249D01*
X249689Y225050D01*
D02*
G37*
G36*
X206257Y226162D02*
X206307Y226128D01*
X206364Y226098D01*
X206429Y226072D01*
X206500Y226050D01*
X206579Y226032D01*
X206665Y226018D01*
X206758Y226008D01*
X206966Y226000D01*
Y225000D01*
X206858Y224998D01*
X206665Y224982D01*
X206579Y224968D01*
X206500Y224950D01*
X206429Y224928D01*
X206364Y224902D01*
X206307Y224872D01*
X206257Y224838D01*
X206214Y224800D01*
Y226200D01*
X206257Y226162D01*
D02*
G37*
G36*
X248562Y224351D02*
X248648Y224355D01*
X248845Y224175D01*
X248916Y224053D01*
X248934Y223996D01*
X248954Y223868D01*
X248853Y223741D01*
X248757Y223663D01*
X248756Y223663D01*
X248609Y223651D01*
X248522Y223649D01*
X248458Y223622D01*
X206821D01*
X206664Y223785D01*
X206527Y224121D01*
X206529Y224127D01*
X206652Y224270D01*
X206738Y224336D01*
X206744Y224337D01*
X206891Y224349D01*
X206978Y224351D01*
X207042Y224378D01*
X248487D01*
X248562Y224351D01*
D02*
G37*
G36*
X249286Y221800D02*
X249243Y221838D01*
X249193Y221872D01*
X249136Y221902D01*
X249072Y221928D01*
X249000Y221950D01*
X248921Y221968D01*
X248835Y221982D01*
X248742Y221992D01*
X248534Y222000D01*
Y223000D01*
X248642Y223002D01*
X248835Y223018D01*
X248921Y223032D01*
X249000Y223050D01*
X249072Y223072D01*
X249136Y223098D01*
X249193Y223128D01*
X249243Y223162D01*
X249286Y223200D01*
Y221800D01*
D02*
G37*
G36*
X257594Y335336D02*
X258000Y335250D01*
X286750Y335250D01*
X286750Y335250D01*
X286750Y335250D01*
X286754Y335249D01*
X287205Y335172D01*
X288034Y334858D01*
X288796Y334383D01*
X289451Y333767D01*
X289973Y333036D01*
X290343Y332217D01*
X290546Y331341D01*
X290553Y331123D01*
X290067Y330650D01*
X283295D01*
Y326500D01*
Y322350D01*
X290000D01*
X290488Y322350D01*
X290500Y321855D01*
X290500Y301645D01*
X290000Y301150D01*
X283295D01*
Y297000D01*
Y292850D01*
X290000D01*
X290488Y292850D01*
X290500Y292355D01*
Y250145D01*
X290000Y249650D01*
X283295D01*
Y245500D01*
Y241350D01*
X290000D01*
X290488Y241350D01*
X290500Y240855D01*
Y221000D01*
Y220145D01*
X290488Y219650D01*
X290000Y219650D01*
X283295D01*
Y215500D01*
Y211350D01*
X290000D01*
X290488Y211350D01*
X290500Y210855D01*
Y171000D01*
Y170212D01*
X290193Y168667D01*
X289590Y167211D01*
X288714Y165900D01*
X287600Y164786D01*
X286289Y163910D01*
X284834Y163307D01*
X283288Y163000D01*
X281761D01*
X280312Y163288D01*
X278947Y163854D01*
X277719Y164674D01*
X276674Y165719D01*
X275854Y166947D01*
X275288Y168312D01*
X275000Y169761D01*
Y171000D01*
X275000Y171000D01*
X275000Y171000D01*
X274999Y171017D01*
X274978Y171441D01*
X274973Y171466D01*
X274806Y172306D01*
X274469Y173121D01*
X273978Y173855D01*
X273355Y174478D01*
X272621Y174969D01*
X271806Y175306D01*
X270941Y175478D01*
X270500Y175500D01*
X263000Y175500D01*
X262015Y175500D01*
X260083Y175884D01*
X258263Y176638D01*
X256625Y177733D01*
X255232Y179125D01*
X254138Y180763D01*
X253384Y182583D01*
X253000Y184515D01*
X253000Y185500D01*
X253000Y219000D01*
X253000Y226750D01*
X253000Y226750D01*
X253000Y226750D01*
X252952Y227238D01*
X252579Y228139D01*
X251889Y228829D01*
X250988Y229202D01*
X250500Y229250D01*
X226750Y229250D01*
X204000D01*
Y231703D01*
X206000D01*
Y233500D01*
X206500D01*
Y234000D01*
X209449D01*
Y234301D01*
Y235598D01*
X206500D01*
Y236598D01*
X209449D01*
Y236900D01*
Y238197D01*
X206500D01*
Y239197D01*
X209449D01*
Y240000D01*
X250500D01*
X250988Y240048D01*
X251889Y240421D01*
X252579Y241111D01*
X252952Y242012D01*
X253000Y242500D01*
X253000Y250500D01*
X253000D01*
X253000Y250500D01*
X252952Y250988D01*
X252579Y251889D01*
X251889Y252579D01*
X250988Y252952D01*
X250500Y253000D01*
X204500Y253000D01*
Y255506D01*
X206000D01*
Y257303D01*
X206500D01*
Y257803D01*
X209449D01*
Y258104D01*
Y259402D01*
X206500D01*
Y260402D01*
X209449D01*
Y260703D01*
Y262000D01*
X206500D01*
Y263000D01*
X209449D01*
Y263500D01*
X251000D01*
X251390Y263538D01*
X252111Y263837D01*
X252663Y264389D01*
X252962Y265110D01*
X253000Y265500D01*
Y275500D01*
X253000D01*
X253000Y275500D01*
X252952Y275988D01*
X252579Y276889D01*
X251889Y277579D01*
X250988Y277952D01*
X250500Y278000D01*
X204500Y278000D01*
Y279907D01*
X206000D01*
Y281705D01*
X206500D01*
Y282205D01*
X209449D01*
Y282506D01*
Y283803D01*
X206500D01*
Y284803D01*
X209449D01*
Y285104D01*
Y286402D01*
X206500D01*
Y287402D01*
X209449D01*
Y288000D01*
X250500D01*
X250988Y288048D01*
X251889Y288421D01*
X252579Y289111D01*
X252952Y290012D01*
X253000Y290500D01*
X253000Y332000D01*
X253000Y332000D01*
X253107Y332456D01*
X253414Y333170D01*
X253884Y333854D01*
X254479Y334434D01*
X255175Y334887D01*
X255946Y335195D01*
X256763Y335347D01*
X257594Y335336D01*
D02*
G37*
%LPC*%
G36*
X282295Y330650D02*
X275102D01*
Y327000D01*
X282295D01*
Y330650D01*
D02*
G37*
G36*
Y326000D02*
X275102D01*
Y322350D01*
X282295D01*
Y326000D01*
D02*
G37*
G36*
Y301150D02*
X275102D01*
Y297500D01*
X282295D01*
Y301150D01*
D02*
G37*
G36*
Y296500D02*
X275102D01*
Y292850D01*
X282295D01*
Y296500D01*
D02*
G37*
G36*
X209449Y281205D02*
X207000D01*
Y279907D01*
X209449D01*
Y281205D01*
D02*
G37*
G36*
Y256803D02*
X207000D01*
Y255506D01*
X209449D01*
Y256803D01*
D02*
G37*
G36*
X282295Y249650D02*
X275102D01*
Y246000D01*
X282295D01*
Y249650D01*
D02*
G37*
G36*
Y245000D02*
X275102D01*
Y241350D01*
X282295D01*
Y245000D01*
D02*
G37*
G36*
X209449Y233000D02*
X207000D01*
Y231703D01*
X209449D01*
Y233000D01*
D02*
G37*
G36*
X282295Y219650D02*
X275102D01*
Y216000D01*
X282295D01*
Y219650D01*
D02*
G37*
G36*
Y215000D02*
X275102D01*
Y211350D01*
X282295D01*
Y215000D01*
D02*
G37*
%LPD*%
D11*
X293000Y261000D02*
Y279000D01*
X198000Y228000D02*
X203500Y222500D01*
X199000Y268500D02*
X205000Y274500D01*
X198000Y295000D02*
X250000D01*
X197500Y294500D02*
X198000Y295000D01*
X207000Y271000D02*
X250000D01*
X206500Y270500D02*
X207000Y271000D01*
X198655Y237398D02*
X200000Y236053D01*
X205000Y274500D02*
X250000D01*
X194748Y289500D02*
X194753Y289505D01*
X205500Y225500D02*
X249500D01*
X250000Y226000D01*
X203500Y222500D02*
X250000D01*
X210000Y247000D02*
X249990D01*
X206000Y251000D02*
X210000Y247000D01*
X206500Y289500D02*
X207652D01*
X207949Y289797D01*
Y289914D01*
X208535Y290500D01*
X250000D01*
X208705Y243500D02*
X250000D01*
X207949Y266414D02*
X209035Y267500D01*
X250000D01*
X206500Y265098D02*
X207652D01*
X207949Y265396D01*
Y266414D01*
X206500Y241295D02*
X208705Y243500D01*
X206500Y281705D02*
X207652D01*
D12*
X282795Y215500D02*
D03*
X307205D02*
D03*
X282795Y245500D02*
D03*
X307205D02*
D03*
X282795Y297000D02*
D03*
X307205D02*
D03*
X282795Y326500D02*
D03*
X307205D02*
D03*
D13*
X194748Y241295D02*
D03*
Y238697D02*
D03*
Y233500D02*
D03*
Y236098D02*
D03*
X206500Y241295D02*
D03*
Y238697D02*
D03*
Y233500D02*
D03*
Y236098D02*
D03*
X194748Y265098D02*
D03*
Y262500D02*
D03*
Y257303D02*
D03*
Y259902D02*
D03*
X206500Y265098D02*
D03*
Y262500D02*
D03*
Y257303D02*
D03*
Y259902D02*
D03*
X194748Y289500D02*
D03*
Y286901D02*
D03*
Y281705D02*
D03*
Y284303D02*
D03*
X206500Y289500D02*
D03*
Y286901D02*
D03*
Y281705D02*
D03*
Y284303D02*
D03*
D14*
X198655Y237398D02*
D03*
Y261201D02*
D03*
Y285602D02*
D03*
D25*
X284000Y308000D02*
X300000D01*
X284000D02*
Y309000D01*
D26*
X343000Y242500D02*
D03*
Y232500D02*
D03*
Y252500D02*
D03*
Y262500D02*
D03*
Y287000D02*
D03*
Y277000D02*
D03*
Y297000D02*
D03*
Y307000D02*
D03*
D27*
X382000Y166000D02*
D03*
Y333000D02*
D03*
X144000D02*
D03*
Y166000D02*
D03*
D28*
X302185Y171000D02*
D03*
D29*
X282500D02*
D03*
D30*
X149705Y281185D02*
D03*
Y261500D02*
D03*
Y241815D02*
D03*
D31*
X376000Y256000D02*
D03*
X372000Y200000D02*
D03*
X352000Y208000D02*
D03*
X380000Y200000D02*
D03*
X384000Y272000D02*
D03*
X324000Y216000D02*
D03*
X360000Y224000D02*
D03*
X316000Y232000D02*
D03*
X312000Y224000D02*
D03*
X376000Y304000D02*
D03*
X384000Y224000D02*
D03*
X380000Y280000D02*
D03*
X376000Y272000D02*
D03*
X356000Y200000D02*
D03*
X332000D02*
D03*
X344000Y192000D02*
D03*
X372000Y264000D02*
D03*
X344000Y208000D02*
D03*
X308000Y232000D02*
D03*
X320000Y240000D02*
D03*
X356000Y312000D02*
D03*
X296000Y224000D02*
D03*
X372000Y216000D02*
D03*
X360000Y208000D02*
D03*
X368000Y224000D02*
D03*
X348000Y200000D02*
D03*
X324000D02*
D03*
X340000Y216000D02*
D03*
X376000Y224000D02*
D03*
X380000Y216000D02*
D03*
X352000Y224000D02*
D03*
X364000Y216000D02*
D03*
X320000Y224000D02*
D03*
X364000Y312000D02*
D03*
X368000Y288000D02*
D03*
X324000Y232000D02*
D03*
X372000D02*
D03*
Y280000D02*
D03*
X384000Y288000D02*
D03*
X348000Y216000D02*
D03*
X336000Y208000D02*
D03*
X384000Y304000D02*
D03*
Y240000D02*
D03*
X336000Y224000D02*
D03*
X328000D02*
D03*
X380000Y232000D02*
D03*
X376000Y192000D02*
D03*
X368040Y255832D02*
D03*
X360000Y192000D02*
D03*
X380000Y312000D02*
D03*
X328000Y192000D02*
D03*
X304000Y224000D02*
D03*
X352040Y271832D02*
D03*
X380000Y264000D02*
D03*
X376000Y208000D02*
D03*
X364000Y200000D02*
D03*
X324000Y248000D02*
D03*
X384000Y256000D02*
D03*
X360000Y304000D02*
D03*
X320000Y192000D02*
D03*
X368000Y304000D02*
D03*
Y192000D02*
D03*
X372000Y312000D02*
D03*
X376000Y288000D02*
D03*
X352000Y192000D02*
D03*
X368000Y272000D02*
D03*
X340000Y200000D02*
D03*
X328000Y208000D02*
D03*
X372040Y247832D02*
D03*
X376000Y240000D02*
D03*
X356000Y216000D02*
D03*
X360040Y271832D02*
D03*
X336000Y192000D02*
D03*
X332000Y216000D02*
D03*
X384000Y208000D02*
D03*
X380000Y248000D02*
D03*
X352000Y304000D02*
D03*
X320000Y208000D02*
D03*
X368000D02*
D03*
X240000Y328000D02*
D03*
Y312000D02*
D03*
X232000Y328000D02*
D03*
X236000Y320000D02*
D03*
X232000Y312000D02*
D03*
X224000Y328000D02*
D03*
X228000Y320000D02*
D03*
X224000Y312000D02*
D03*
X216000Y328000D02*
D03*
X220000Y320000D02*
D03*
X216000Y312000D02*
D03*
X208000Y328000D02*
D03*
X212000Y320000D02*
D03*
X208000Y312000D02*
D03*
X200000Y328000D02*
D03*
X204000Y320000D02*
D03*
X200000Y312000D02*
D03*
X192000Y328000D02*
D03*
X196000Y320000D02*
D03*
X192000Y312000D02*
D03*
X184000Y328000D02*
D03*
X188000Y320000D02*
D03*
X184000Y312000D02*
D03*
X176000Y328000D02*
D03*
X180000Y320000D02*
D03*
X176000Y312000D02*
D03*
X168000Y328000D02*
D03*
X172000Y320000D02*
D03*
X168000Y312000D02*
D03*
X164000Y320000D02*
D03*
X200000Y216000D02*
D03*
Y200000D02*
D03*
X192000Y216000D02*
D03*
X196000Y208000D02*
D03*
X192000Y200000D02*
D03*
X184000Y216000D02*
D03*
X188000Y208000D02*
D03*
X184000Y200000D02*
D03*
X176000Y216000D02*
D03*
X180000Y208000D02*
D03*
X176000Y200000D02*
D03*
X168000Y216000D02*
D03*
X172000Y208000D02*
D03*
X168000Y200000D02*
D03*
X300000Y308000D02*
D03*
D32*
X206500Y270500D02*
D03*
X205500Y225500D02*
D03*
X250000Y226000D02*
D03*
Y222500D02*
D03*
X206000Y251000D02*
D03*
X250000Y247000D02*
D03*
X293000Y261000D02*
D03*
X293389Y278598D02*
D03*
X250000Y290500D02*
D03*
Y243500D02*
D03*
Y271000D02*
D03*
Y267500D02*
D03*
Y274500D02*
D03*
Y295000D02*
D03*
M02*
