G04*
G04 #@! TF.GenerationSoftware,Altium Limited,Altium Designer,20.0.12 (288)*
G04*
G04 Layer_Color=65535*
%FSLAX25Y25*%
%MOIN*%
G70*
G01*
G75*
%ADD10C,0.00787*%
%ADD11C,0.01000*%
G36*
X208499Y230987D02*
X208577D01*
X208721Y231047D01*
X208832Y231158D01*
X208892Y231302D01*
Y231381D01*
Y231459D01*
X208832Y231604D01*
X208721Y231715D01*
X208577Y231774D01*
X208499D01*
X208420D01*
X208276Y231715D01*
X208165Y231604D01*
X208105Y231459D01*
Y231381D01*
Y231302D01*
X208165Y231158D01*
X208276Y231047D01*
X208420Y230987D01*
X208499D01*
D01*
D02*
G37*
G36*
Y254790D02*
X208577D01*
X208721Y254850D01*
X208832Y254961D01*
X208892Y255106D01*
Y255184D01*
Y255262D01*
X208832Y255407D01*
X208721Y255518D01*
X208577Y255578D01*
X208499D01*
X208420D01*
X208276Y255518D01*
X208165Y255407D01*
X208105Y255262D01*
Y255184D01*
Y255106D01*
X208165Y254961D01*
X208276Y254850D01*
X208420Y254790D01*
X208499D01*
D01*
D02*
G37*
G36*
Y279192D02*
X208577D01*
X208721Y279252D01*
X208832Y279363D01*
X208892Y279507D01*
Y279586D01*
Y279664D01*
X208832Y279808D01*
X208721Y279919D01*
X208577Y279979D01*
X208499D01*
X208420D01*
X208276Y279919D01*
X208165Y279808D01*
X208105Y279664D01*
Y279586D01*
Y279507D01*
X208165Y279363D01*
X208276Y279252D01*
X208420Y279192D01*
X208499D01*
D01*
D02*
G37*
D10*
X279646Y201720D02*
Y217075D01*
Y229279D01*
Y201720D02*
X304842D01*
X309961Y206839D01*
Y223768D01*
X279646Y229279D02*
X304449D01*
X309961Y223768D01*
X279646Y231720D02*
Y247075D01*
Y259279D01*
Y231720D02*
X304842D01*
X309961Y236839D01*
Y253768D01*
X279646Y259279D02*
X304449D01*
X309961Y253768D01*
X279646Y283221D02*
Y298575D01*
Y310780D01*
Y283221D02*
X304842D01*
X309961Y288339D01*
Y305268D01*
X279646Y310780D02*
X304449D01*
X309961Y305268D01*
X279646Y312720D02*
Y328075D01*
Y340280D01*
Y312720D02*
X304842D01*
X309961Y317839D01*
Y334768D01*
X279646Y340280D02*
X304449D01*
X309961Y334768D01*
D11*
X158832Y187859D02*
X155500D01*
Y182860D01*
X158832D01*
X155500Y185360D02*
X157166D01*
X163831Y187026D02*
X162998Y187859D01*
X161331D01*
X160498Y187026D01*
Y186193D01*
X161331Y185360D01*
X162998D01*
X163831Y184526D01*
Y183693D01*
X162998Y182860D01*
X161331D01*
X160498Y183693D01*
X168829Y187026D02*
X167996Y187859D01*
X166330D01*
X165497Y187026D01*
Y183693D01*
X166330Y182860D01*
X167996D01*
X168829Y183693D01*
X175494Y187859D02*
Y182860D01*
X177993D01*
X178826Y183693D01*
Y187026D01*
X177993Y187859D01*
X175494D01*
X182991Y182860D02*
X181325D01*
X180492Y183693D01*
Y185360D01*
X181325Y186193D01*
X182991D01*
X183824Y185360D01*
Y184526D01*
X180492D01*
X185490Y186193D02*
X187156Y182860D01*
X188822Y186193D01*
X192988Y182860D02*
X191322D01*
X190489Y183693D01*
Y185360D01*
X191322Y186193D01*
X192988D01*
X193821Y185360D01*
Y184526D01*
X190489D01*
X195487Y182860D02*
X197153D01*
X196320D01*
Y187859D01*
X195487D01*
X200485Y182860D02*
X202151D01*
X202985Y183693D01*
Y185360D01*
X202151Y186193D01*
X200485D01*
X199652Y185360D01*
Y183693D01*
X200485Y182860D01*
X204651Y181194D02*
Y186193D01*
X207150D01*
X207983Y185360D01*
Y183693D01*
X207150Y182860D01*
X204651D01*
X209649D02*
Y186193D01*
X210482D01*
X211315Y185360D01*
Y182860D01*
Y185360D01*
X212148Y186193D01*
X212981Y185360D01*
Y182860D01*
X217147D02*
X215481D01*
X214648Y183693D01*
Y185360D01*
X215481Y186193D01*
X217147D01*
X217980Y185360D01*
Y184526D01*
X214648D01*
X219646Y182860D02*
Y186193D01*
X222145D01*
X222978Y185360D01*
Y182860D01*
X225477Y187026D02*
Y186193D01*
X224644D01*
X226310D01*
X225477D01*
Y183693D01*
X226310Y182860D01*
X233808Y187859D02*
Y182860D01*
X236307D01*
X237140Y183693D01*
Y184526D01*
X236307Y185360D01*
X233808D01*
X236307D01*
X237140Y186193D01*
Y187026D01*
X236307Y187859D01*
X233808D01*
X239639Y182860D02*
X241305D01*
X242139Y183693D01*
Y185360D01*
X241305Y186193D01*
X239639D01*
X238806Y185360D01*
Y183693D01*
X239639Y182860D01*
X244638Y186193D02*
X246304D01*
X247137Y185360D01*
Y182860D01*
X244638D01*
X243805Y183693D01*
X244638Y184526D01*
X247137D01*
X248803Y186193D02*
Y182860D01*
Y184526D01*
X249636Y185360D01*
X250469Y186193D01*
X251302D01*
X257134Y187859D02*
Y182860D01*
X254634D01*
X253801Y183693D01*
Y185360D01*
X254634Y186193D01*
X257134D01*
X155500Y172796D02*
Y177795D01*
X157999D01*
X158832Y176961D01*
Y175295D01*
X157999Y174462D01*
X155500D01*
X157166D02*
X158832Y172796D01*
X162998D02*
X161331D01*
X160498Y173629D01*
Y175295D01*
X161331Y176128D01*
X162998D01*
X163831Y175295D01*
Y174462D01*
X160498D01*
X165497Y176128D02*
X167163Y172796D01*
X168829Y176128D01*
X175494Y172796D02*
Y176128D01*
X177160Y177795D01*
X178826Y176128D01*
Y172796D01*
Y175295D01*
X175494D01*
X155500Y164398D02*
Y167730D01*
X157166Y169396D01*
X158832Y167730D01*
Y164398D01*
Y166897D01*
X155500D01*
X160498Y169396D02*
Y165231D01*
X161331Y164398D01*
X162998D01*
X163831Y165231D01*
Y169396D01*
X165497D02*
Y166064D01*
X167163Y164398D01*
X168829Y166064D01*
Y169396D01*
X170495D02*
X172161D01*
X171328D01*
Y164398D01*
X170495D01*
X172161D01*
X177993Y168563D02*
X177160Y169396D01*
X175494D01*
X174661Y168563D01*
Y165231D01*
X175494Y164398D01*
X177160D01*
X177993Y165231D01*
X187989Y164398D02*
X184657D01*
X187989Y167730D01*
Y168563D01*
X187156Y169396D01*
X185490D01*
X184657Y168563D01*
X189656D02*
X190489Y169396D01*
X192155D01*
X192988Y168563D01*
Y165231D01*
X192155Y164398D01*
X190489D01*
X189656Y165231D01*
Y168563D01*
X197986Y164398D02*
X194654D01*
X197986Y167730D01*
Y168563D01*
X197153Y169396D01*
X195487D01*
X194654Y168563D01*
X199652D02*
X200485Y169396D01*
X202151D01*
X202985Y168563D01*
Y165231D01*
X202151Y164398D01*
X200485D01*
X199652Y165231D01*
Y168563D01*
X155500Y156000D02*
Y160998D01*
X157999D01*
X158832Y160165D01*
Y158499D01*
X157999Y157666D01*
X155500D01*
X161331Y156000D02*
X162998D01*
X163831Y156833D01*
Y158499D01*
X162998Y159332D01*
X161331D01*
X160498Y158499D01*
Y156833D01*
X161331Y156000D01*
X166330D02*
X167996D01*
X168829Y156833D01*
Y158499D01*
X167996Y159332D01*
X166330D01*
X165497Y158499D01*
Y156833D01*
X166330Y156000D01*
X170495Y159332D02*
Y156000D01*
Y157666D01*
X171328Y158499D01*
X172161Y159332D01*
X172994D01*
X175494Y156000D02*
Y159332D01*
X177993D01*
X178826Y158499D01*
Y156000D01*
X181325Y159332D02*
X182991D01*
X183824Y158499D01*
Y156000D01*
X181325D01*
X180492Y156833D01*
X181325Y157666D01*
X183824D01*
X193821Y160165D02*
X192988Y160998D01*
X191322D01*
X190489Y160165D01*
Y156833D01*
X191322Y156000D01*
X192988D01*
X193821Y156833D01*
X195487Y160998D02*
Y156000D01*
Y158499D01*
X196320Y159332D01*
X197986D01*
X198819Y158499D01*
Y156000D01*
X201319Y159332D02*
X202985D01*
X203818Y158499D01*
Y156000D01*
X201319D01*
X200485Y156833D01*
X201319Y157666D01*
X203818D01*
X205484Y156000D02*
Y159332D01*
X207983D01*
X208816Y158499D01*
Y156000D01*
X213814Y160998D02*
Y156000D01*
X211315D01*
X210482Y156833D01*
Y158499D01*
X211315Y159332D01*
X213814D01*
X217980Y156000D02*
X216314D01*
X215481Y156833D01*
Y158499D01*
X216314Y159332D01*
X217980D01*
X218813Y158499D01*
Y157666D01*
X215481D01*
X220479Y159332D02*
Y156000D01*
Y157666D01*
X221312Y158499D01*
X222145Y159332D01*
X222978D01*
X230476Y160998D02*
Y156000D01*
Y157666D01*
X233808Y160998D01*
X231309Y158499D01*
X233808Y156000D01*
X236307Y159332D02*
X237973D01*
X238806Y158499D01*
Y156000D01*
X236307D01*
X235474Y156833D01*
X236307Y157666D01*
X238806D01*
X240473Y156000D02*
X242139D01*
X241305D01*
Y160998D01*
X240473D01*
X244638Y156000D02*
X246304D01*
X245471D01*
Y159332D01*
X244638D01*
X252135Y160998D02*
Y156000D01*
X249636D01*
X248803Y156833D01*
Y158499D01*
X249636Y159332D01*
X252135D01*
X254634D02*
X256301D01*
X257134Y158499D01*
Y156000D01*
X254634D01*
X253801Y156833D01*
X254634Y157666D01*
X257134D01*
X258800Y156000D02*
X261299D01*
X262132Y156833D01*
X261299Y157666D01*
X259633D01*
X258800Y158499D01*
X259633Y159332D01*
X262132D01*
X196732Y296733D02*
Y300065D01*
X195899Y300898D01*
X194233D01*
X193400Y300065D01*
Y296733D01*
X194233Y295900D01*
X195899D01*
X195066Y297566D02*
X196732Y295900D01*
X195899D02*
X196732Y296733D01*
X198398Y295900D02*
X200064D01*
X199231D01*
Y300898D01*
X198398Y300065D01*
X196732Y248533D02*
Y251865D01*
X195899Y252698D01*
X194233D01*
X193400Y251865D01*
Y248533D01*
X194233Y247700D01*
X195899D01*
X195066Y249366D02*
X196732Y247700D01*
X195899D02*
X196732Y248533D01*
X198398Y251865D02*
X199231Y252698D01*
X200898D01*
X201731Y251865D01*
Y251032D01*
X200898Y250199D01*
X200064D01*
X200898D01*
X201731Y249366D01*
Y248533D01*
X200898Y247700D01*
X199231D01*
X198398Y248533D01*
X196732Y272333D02*
Y275665D01*
X195899Y276498D01*
X194233D01*
X193400Y275665D01*
Y272333D01*
X194233Y271500D01*
X195899D01*
X195066Y273166D02*
X196732Y271500D01*
X195899D02*
X196732Y272333D01*
X201731Y271500D02*
X198398D01*
X201731Y274832D01*
Y275665D01*
X200898Y276498D01*
X199231D01*
X198398Y275665D01*
X311616Y341240D02*
X311616Y342418D01*
X310438Y343596D01*
X309260D01*
X306904Y341240D01*
Y340062D01*
X308082Y338884D01*
X309260Y338884D01*
X309849Y337116D02*
X311027Y335938D01*
X310438Y336527D01*
X313973Y340062D01*
X312794D01*
X315740Y337116D02*
X316918D01*
X318096Y335938D01*
Y334760D01*
X315740Y332404D01*
X314562Y332404D01*
X313384Y333582D01*
Y334760D01*
X315740Y337116D01*
X312089Y311767D02*
X312089Y312945D01*
X310911Y314124D01*
X309733D01*
X307377Y311767D01*
Y310589D01*
X308555Y309411D01*
X309733Y309411D01*
X310911Y308233D02*
Y307055D01*
X312089Y305876D01*
X313267Y305876D01*
X315623Y308233D01*
X315623Y309411D01*
X314445Y310589D01*
X313267D01*
X312678Y310000D01*
X312678Y308822D01*
X314445Y307055D01*
X312767Y200411D02*
X313945Y200411D01*
X315124Y201589D01*
Y202767D01*
X312767Y205123D01*
X311589D01*
X310411Y203945D01*
X310411Y202767D01*
X311589Y199233D02*
Y198055D01*
X310411Y196877D01*
X309233Y196877D01*
X308644Y197466D01*
Y198644D01*
X307466D01*
X306876Y199233D01*
X306876Y200411D01*
X308055Y201589D01*
X309233D01*
X309822Y201000D01*
Y199822D01*
X311000Y199822D01*
X311589Y199233D01*
X309822Y199822D02*
X308644Y198644D01*
X313089Y259267D02*
X313089Y260445D01*
X311911Y261624D01*
X310733D01*
X308377Y259267D01*
Y258089D01*
X309555Y256911D01*
X310733Y256911D01*
X314856Y258678D02*
X317213Y256322D01*
X316623Y255733D01*
X311911D01*
X311322Y255144D01*
M02*
