G04*
G04 #@! TF.GenerationSoftware,Altium Limited,Altium Designer,20.0.12 (288)*
G04*
G04 Layer_Color=32768*
%FSLAX25Y25*%
%MOIN*%
G70*
G01*
G75*
%ADD11C,0.01000*%
%ADD49C,0.00394*%
%ADD53C,0.00197*%
D11*
X370189Y154189D02*
X393811D01*
X370189D02*
Y177811D01*
X393811D01*
X378063Y166000D02*
X385937D01*
X382000Y162063D02*
Y169937D01*
X393811Y154189D02*
Y177811D01*
X378063Y166000D02*
X385937D01*
X370189Y321189D02*
X393811D01*
X370189D02*
Y344811D01*
X393811D01*
X378063Y333000D02*
X385937D01*
X382000Y329063D02*
Y336937D01*
X393811Y321189D02*
Y344811D01*
X378063Y333000D02*
X385937D01*
X132189Y321189D02*
X155811D01*
X132189D02*
Y344811D01*
X155811D01*
X140063Y333000D02*
X147937D01*
X144000Y329063D02*
Y336937D01*
X155811Y321189D02*
Y344811D01*
X140063Y333000D02*
X147937D01*
X132189Y154189D02*
X155811D01*
X132189D02*
Y177811D01*
X155811D01*
X140063Y166000D02*
X147937D01*
X144000Y162063D02*
Y169937D01*
X155811Y154189D02*
Y177811D01*
X140063Y166000D02*
X147937D01*
X145768Y261500D02*
X153642D01*
X149705Y257563D02*
Y265437D01*
X130020Y294965D02*
X173327D01*
Y226067D02*
Y294965D01*
X130020Y226067D02*
X173327D01*
X130020D02*
Y294965D01*
D49*
X310899Y270750D02*
Y274687D01*
X308930Y272719D02*
X312867D01*
X326000Y299630D02*
Y303370D01*
X324130Y301500D02*
X327870D01*
X319898Y298547D02*
X332102Y298547D01*
X319898Y304453D02*
X332102Y304453D01*
X319898Y298547D02*
Y304453D01*
X332102Y298547D02*
Y304453D01*
X326000Y294870D02*
X326000Y291130D01*
X324130Y293000D02*
X327870D01*
X319898Y290047D02*
X332102D01*
X319898Y295953D02*
X332102D01*
X319898D02*
X319898Y290047D01*
X332102D02*
Y295953D01*
X272000Y200031D02*
Y203969D01*
X270031Y202000D02*
X273969D01*
X256842Y194323D02*
X287158D01*
X256842Y209677D02*
X287158D01*
X256842Y194323D02*
Y209677D01*
X287158Y194323D02*
Y209677D01*
X258178Y236822D02*
X260822Y234178D01*
X258178D02*
X260822Y236822D01*
X257273Y229097D02*
X265903Y237727D01*
X253097Y233273D02*
X261727Y241903D01*
X253097Y233273D02*
X257273Y229097D01*
X261727Y241903D02*
X265903Y237727D01*
X258178Y248678D02*
X260822Y251322D01*
X258178Y251322D02*
X260822Y248678D01*
X253097Y252227D02*
X261727Y243597D01*
X257273Y256403D02*
X265903Y247773D01*
X253097Y252227D02*
X257273Y256403D01*
X261727Y243597D02*
X265903Y247773D01*
X277178Y263322D02*
X279822Y260678D01*
X277178D02*
X279822Y263322D01*
X276273Y255597D02*
X284903Y264227D01*
X272097Y259773D02*
X280727Y268403D01*
X272097Y259773D02*
X276273Y255597D01*
X280727Y268403D02*
X284903Y264227D01*
X270678Y265322D02*
X273322Y262678D01*
X270678D02*
X273322Y265322D01*
X269773Y257597D02*
X278403Y266227D01*
X265597Y261773D02*
X274227Y270403D01*
X265597Y261773D02*
X269773Y257597D01*
X274227Y270403D02*
X278403Y266227D01*
X266178Y269822D02*
X268822Y267178D01*
X266178D02*
X268822Y269822D01*
X265273Y262097D02*
X273903Y270727D01*
X261097Y266273D02*
X269727Y274903D01*
X261097Y266273D02*
X265273Y262097D01*
X269727Y274903D02*
X273903Y270727D01*
X255311Y278044D02*
X257956Y280689D01*
X255311Y280689D02*
X257956Y278044D01*
X250231Y281593D02*
X258861Y272963D01*
X254407Y285769D02*
X263037Y277139D01*
X250231Y281593D02*
X254407Y285769D01*
X258861Y272963D02*
X263037Y277139D01*
D53*
X293871Y257955D02*
X327926D01*
X293871Y287483D02*
X327926D01*
X293871Y257955D02*
Y287483D01*
X327926Y257955D02*
Y287483D01*
M02*
